<mxfile host="app.diagrams.net" modified="2022-06-21T09:27:38.796Z" agent="5.0 (X11)" etag="uLrsSL8dOEMGWLPWfMJ4" version="20.0.1" type="github">
  <diagram id="SC2pL5TFBzT6UAXsdJ7b" name="Page-1">
    <mxGraphModel dx="1988" dy="1153" grid="1" gridSize="10" guides="1" tooltips="1" connect="1" arrows="1" fold="1" page="1" pageScale="1" pageWidth="850" pageHeight="1100" math="0" shadow="0">
      <root>
        <mxCell id="0" />
        <mxCell id="1" parent="0" />
        <mxCell id="CxXdmF8Wp-mIyxedfQYM-2" value="Jupyter Hub" style="rounded=0;whiteSpace=wrap;html=1;" vertex="1" parent="1">
          <mxGeometry x="80" y="200" width="160" height="80" as="geometry" />
        </mxCell>
        <mxCell id="CxXdmF8Wp-mIyxedfQYM-3" value="Data Scientist" style="shape=umlActor;verticalLabelPosition=bottom;verticalAlign=top;html=1;outlineConnect=0;" vertex="1" parent="1">
          <mxGeometry x="250" y="40" width="30" height="60" as="geometry" />
        </mxCell>
        <mxCell id="CxXdmF8Wp-mIyxedfQYM-4" value="Compute" style="text;html=1;strokeColor=none;fillColor=none;align=left;verticalAlign=middle;whiteSpace=wrap;rounded=0;" vertex="1" parent="1">
          <mxGeometry x="80" y="170" width="160" height="30" as="geometry" />
        </mxCell>
        <mxCell id="CxXdmF8Wp-mIyxedfQYM-5" value="MLFlow" style="rounded=0;whiteSpace=wrap;html=1;" vertex="1" parent="1">
          <mxGeometry x="280" y="200" width="160" height="80" as="geometry" />
        </mxCell>
        <mxCell id="CxXdmF8Wp-mIyxedfQYM-6" value="Organize" style="text;html=1;strokeColor=none;fillColor=none;align=left;verticalAlign=middle;whiteSpace=wrap;rounded=0;" vertex="1" parent="1">
          <mxGeometry x="280" y="170" width="160" height="30" as="geometry" />
        </mxCell>
        <mxCell id="CxXdmF8Wp-mIyxedfQYM-9" value="Airflow" style="rounded=0;whiteSpace=wrap;html=1;" vertex="1" parent="1">
          <mxGeometry x="480" y="200" width="160" height="80" as="geometry" />
        </mxCell>
        <mxCell id="CxXdmF8Wp-mIyxedfQYM-10" value="Schedule" style="text;html=1;strokeColor=none;fillColor=none;align=left;verticalAlign=middle;whiteSpace=wrap;rounded=0;" vertex="1" parent="1">
          <mxGeometry x="480" y="170" width="160" height="30" as="geometry" />
        </mxCell>
        <mxCell id="CxXdmF8Wp-mIyxedfQYM-12" value="&lt;div&gt;Systems managed infra and deployment life-cycle&lt;br&gt;&lt;/div&gt;&amp;nbsp;(databases, secrets, buckets...)" style="rounded=1;whiteSpace=wrap;html=1;" vertex="1" parent="1">
          <mxGeometry x="80" y="320" width="760" height="80" as="geometry" />
        </mxCell>
        <mxCell id="CxXdmF8Wp-mIyxedfQYM-14" value="&lt;div&gt;DAGs&lt;/div&gt;&lt;div&gt;Docker images&lt;br&gt;&lt;/div&gt;" style="rounded=0;whiteSpace=wrap;html=1;labelBackgroundColor=none;fillColor=#fff2cc;strokeColor=#d6b656;" vertex="1" parent="1">
          <mxGeometry x="480" y="40" width="160" height="80" as="geometry" />
        </mxCell>
        <mxCell id="CxXdmF8Wp-mIyxedfQYM-15" value="Syncs" style="endArrow=classic;html=1;rounded=0;entryX=0.5;entryY=1;entryDx=0;entryDy=0;exitX=0.5;exitY=1;exitDx=0;exitDy=0;" edge="1" parent="1" source="CxXdmF8Wp-mIyxedfQYM-10" target="CxXdmF8Wp-mIyxedfQYM-14">
          <mxGeometry width="50" height="50" relative="1" as="geometry">
            <mxPoint x="400" y="500" as="sourcePoint" />
            <mxPoint x="450" y="450" as="targetPoint" />
          </mxGeometry>
        </mxCell>
        <mxCell id="CxXdmF8Wp-mIyxedfQYM-26" style="edgeStyle=orthogonalEdgeStyle;rounded=0;orthogonalLoop=1;jettySize=auto;html=1;entryX=1;entryY=0.5;entryDx=0;entryDy=0;" edge="1" parent="1" source="CxXdmF8Wp-mIyxedfQYM-21" target="CxXdmF8Wp-mIyxedfQYM-14">
          <mxGeometry relative="1" as="geometry" />
        </mxCell>
        <mxCell id="CxXdmF8Wp-mIyxedfQYM-21" value="Meltano Project" style="rounded=0;whiteSpace=wrap;html=1;labelBackgroundColor=none;fillColor=#fff2cc;strokeColor=#d6b656;" vertex="1" parent="1">
          <mxGeometry x="680" y="40" width="160" height="80" as="geometry" />
        </mxCell>
      </root>
    </mxGraphModel>
  </diagram>
</mxfile>
